<?xml version="1.0" encoding="utf-8"?>
<!-- Generator: Adobe Illustrator 21.1.0, SVG Export Plug-In . SVG Version: 6.00 Build 0)  -->
<svg version="1.1" xmlns="http://www.w3.org/2000/svg" xmlns:xlink="http://www.w3.org/1999/xlink" x="0px" y="0px"
	 viewBox="0 0 1884 2088" style="enable-background:new 0 0 1884 2088;" xml:space="preserve">
<style type="text/css">
	.st0{fill:#464547;}
	.st1{fill:#FFFFFF;}
	.st2{fill:#2F7F84;}
	.st3{clip-path:url(#SVGID_2_);fill:none;stroke:#FFFFFF;stroke-width:12.8552;stroke-miterlimit:10;}
	.st4{clip-path:url(#SVGID_2_);fill:none;stroke:#2E7E83;stroke-width:12.8552;stroke-miterlimit:10;}
</style>
<g id="BG">
	<rect x="-8" class="st0" width="1900.1" height="2088"/>
</g>
<g id="Logo">
	<g>
		<g>
			<path class="st1" d="M1002.5,1396h40.1v4.5h-35.2v33.4h32.7v4.5h-32.7v41.4h-4.9V1396z"/>
			<path class="st1" d="M1065.5,1481c-16.2,0-20.2-14.4-20.2-32.1c0-17.6,4-32,20.9-32c16.2,0,20.2,14.4,20.2,32
				C1086.4,1466.6,1082.4,1481,1065.5,1481z M1065.9,1420.9c-11.7,0-15.6,10.4-15.6,28.1c0,17.6,3.9,28,15.6,28s15.6-10.4,15.6-28
				C1081.5,1431.3,1077.6,1420.9,1065.9,1420.9z"/>
			<path class="st1" d="M1096.8,1418.3h4.5v10.7h0.2c2.2-7,7.3-12.1,15.4-12.1h2.6v4h-2.6c-10.4,0-15.6,9.7-15.6,19.8v38.9h-4.5
				V1418.3z"/>
			<path class="st1" d="M1179,1424.7h-0.2l-12.1,55h-5.6l-13.1-61.3h4.9l10.9,55h0.2l12.1-55h5.6l11.6,55h0.2l11-55h4.9l-13.2,61.3
				h-5.6L1179,1424.7z"/>
			<path class="st1" d="M1219.5,1448.7c0,9.8,0.1,28.4,14.4,28.4c12.9,0,15-12.9,15-17.5h4.5c0,9.4-5.2,21.4-19,21.4
				c-15.8,0-19.8-12.9-19.8-33.8c0-18.8,6.7-30.4,20.5-30.4c14.4,0,19.1,12,19.1,31.8H1219.5z M1249.3,1444.7
				c0-11.1-1.8-23.8-14.4-23.8c-13.6,0-15.4,15.8-15.4,23.8H1249.3z"/>
			<path class="st1" d="M1324.9,1472.2c0,2.9,1.2,4.1,2.7,4.1c1.1,0,2-0.1,2.8-0.6v3.5c-0.9,0.7-2.7,1.1-4.7,1.1
				c-1.9,0-5.3-1.9-5.3-6.7v-3.9h-0.2c-1.8,6.3-7.9,11.3-16.1,11.3c-10.7,0-15.4-7.6-15.4-17.1c0-9.3,3.8-14.5,12.4-16.9l13.2-3.6
				c5.3-1.4,6-3.9,6-9c0-11.1-5.2-13.5-11.8-13.5c-10.3,0-13.4,6.4-13.4,14.9h-4.5c0-8.3,3-18.9,17.3-18.9
				c13.5,0,16.8,7.4,16.8,16.2V1472.2z M1320.4,1443.9h-0.2c-1.5,2.5-3.2,2.8-7.7,4.1l-9,2.5c-7.1,2-9.7,6.2-9.7,13.5
				c0,8,3.5,13.1,11.3,13.1c10.4,0,15.5-8.2,15.5-20.5V1443.9z"/>
			<path class="st1" d="M1337.5,1418.3h4.5v10.7h0.2c2.2-7,7.3-12.1,15.4-12.1h2.6v4h-2.6c-10.4,0-15.6,9.7-15.6,19.8v38.9h-4.5
				V1418.3z"/>
			<path class="st1" d="M1369.1,1448.7c0,9.8,0.1,28.4,14.4,28.4c12.9,0,15-12.9,15-17.5h4.5c0,9.4-5.2,21.4-19,21.4
				c-15.8,0-19.8-12.9-19.8-33.8c0-18.8,6.7-30.4,20.5-30.4c14.4,0,19.1,12,19.1,31.8H1369.1z M1398.9,1444.7
				c0-11.1-1.8-23.8-14.4-23.8c-13.6,0-15.4,15.8-15.4,23.8H1398.9z"/>
			<path class="st1" d="M1474.5,1472.2c0,2.9,1.2,4.1,2.7,4.1c1.1,0,2-0.1,2.8-0.6v3.5c-0.9,0.7-2.7,1.1-4.7,1.1
				c-1.9,0-5.3-1.9-5.3-6.7v-3.9h-0.2c-1.8,6.3-7.9,11.3-16.1,11.3c-10.7,0-15.4-7.6-15.4-17.1c0-9.3,3.8-14.5,12.4-16.9l13.2-3.6
				c5.3-1.4,6-3.9,6-9c0-11.1-5.2-13.5-11.8-13.5c-10.3,0-13.4,6.4-13.4,14.9h-4.5c0-8.3,3-18.9,17.3-18.9
				c13.5,0,16.8,7.4,16.8,16.2V1472.2z M1470,1443.9h-0.2c-1.5,2.5-3.2,2.8-7.7,4.1l-9,2.5c-7.1,2-9.7,6.2-9.7,13.5
				c0,8,3.5,13.1,11.3,13.1c10.4,0,15.5-8.2,15.5-20.5V1443.9z"/>
			<path class="st1" d="M1515.7,1396h4.5v83.7h-4.5V1396z"/>
			<path class="st1" d="M1533.1,1396h4.5v12h-4.5V1396z M1533.1,1418.3h4.5v61.3h-4.5V1418.3z"/>
			<path class="st1" d="M1562.3,1479.6l-17.2-61.3h4.9l14.9,55.7h0.2l14.2-55.7h4.9l-16.6,61.3H1562.3z"/>
			<path class="st1" d="M1591.7,1396h4.5v12h-4.5V1396z M1591.7,1418.3h4.5v61.3h-4.5V1418.3z"/>
			<path class="st1" d="M1608.5,1418.3h4.5v9.3h0.2c2.1-5.4,7.3-10.7,15.6-10.7c8.7,0,15.5,4.9,15.5,16.5v46.2h-4.5v-44.1
				c0-10.9-4.6-14.6-12.2-14.6c-9.4,0-14.6,8.8-14.6,19.5v39.3h-4.5V1418.3z"/>
			<path class="st1" d="M1694,1476.2c0,15.1-4.5,25-19.7,25c-15.6,0-16.6-12.1-16.6-15.2h4.5c0,6.3,4,11.3,12.7,11.3
				c10.4,0,14.8-6,14.8-18.8v-11.3h-0.4c-1.8,5.4-5.3,12.4-16.1,12.4c-14.4,0-18.4-14.2-18.4-30.9s3.2-31.8,19.3-31.8
				c8,0,12.9,4.5,15.2,11.6h0.2v-10.2h4.5V1476.2z M1674.5,1475.6c11.1,0,15-11.3,15-27.9c0-17.8-4.8-26.8-14.4-26.8
				c-9.8,0-15.5,6.9-15.5,27.8C1659.6,1464.4,1662.9,1475.6,1674.5,1475.6z"/>
			<path class="st1" d="M1004.7,1553.6c0,9.8,0.1,28.4,14.4,28.4c12.9,0,15-12.9,15-17.5h4.5c0,9.4-5.2,21.4-19,21.4
				c-15.8,0-19.8-12.9-19.8-33.8c0-18.8,6.7-30.4,20.5-30.4c14.4,0,19.1,12,19.1,31.8H1004.7z M1034.5,1549.6
				c0-11.1-1.8-23.8-14.4-23.8c-13.6,0-15.4,15.8-15.4,23.8H1034.5z"/>
			<path class="st1" d="M1061.1,1553l-15.7-29.8h5.5l12.9,26l13.2-26h4.9l-15.6,29.8l16.4,31.5h-5.5l-13.7-27.7l-14.1,27.7h-4.9
				L1061.1,1553z"/>
			<path class="st1" d="M1090.3,1500.8h4.5v31.6h0.2c2.1-5.4,7.3-10.7,15.6-10.7c8.7,0,15.5,4.9,15.5,16.5v46.2h-4.5v-44.1
				c0-10.9-4.6-14.6-12.2-14.6c-9.4,0-14.6,8.8-14.6,19.5v39.3h-4.5V1500.8z"/>
			<path class="st1" d="M1138.4,1500.8h4.5v12h-4.5V1500.8z M1138.4,1523.2h4.5v61.3h-4.5V1523.2z"/>
			<path class="st1" d="M1155.5,1500.8h4.5v33.2h0.2c2.2-6.6,6.2-12.2,15.7-12.2c15.4,0,18.9,13.9,18.9,31.9
				c0,19-4.8,32.2-19.1,32.2c-8.6,0-13.9-4.9-15.5-13.2h-0.2v11.8h-4.5V1500.8z M1160,1553.7c0,17.9,4.1,28.2,15,28.2
				c12.1,0,14.9-12.7,14.9-28.2c0-19.1-3.8-27.9-14.1-27.9C1164.6,1525.8,1160,1534.8,1160,1553.7z"/>
			<path class="st1" d="M1205.7,1500.8h4.5v12h-4.5V1500.8z M1205.7,1523.2h4.5v61.3h-4.5V1523.2z"/>
			<path class="st1" d="M1217.5,1523.2h8.3v-18.2h4.5v18.2h10.2v4h-10.2v47.2c0,5.9,2.8,6.8,5.4,6.8c1.9,0,3.5-0.1,5.5-0.7v4
				c-2.2,0.5-4.6,0.7-6.3,0.7c-6.3,0-9-3.6-9-10.3v-47.7h-8.3V1523.2z"/>
			<path class="st1" d="M1246.9,1500.8h4.5v12h-4.5V1500.8z M1246.9,1523.2h4.5v61.3h-4.5V1523.2z"/>
			<path class="st1" d="M1282.4,1585.9c-16.2,0-20.2-14.4-20.2-32.1c0-17.6,4-32,20.9-32c16.2,0,20.2,14.4,20.2,32
				C1303.3,1571.5,1299.3,1585.9,1282.4,1585.9z M1282.8,1525.8c-11.7,0-15.6,10.4-15.6,28.1c0,17.6,3.9,28,15.6,28
				s15.6-10.4,15.6-28C1298.4,1536.2,1294.5,1525.8,1282.8,1525.8z"/>
			<path class="st1" d="M1313.7,1523.2h4.5v9.3h0.2c2.1-5.4,7.3-10.7,15.6-10.7c8.7,0,15.5,4.9,15.5,16.5v46.2h-4.5v-44.1
				c0-10.9-4.6-14.6-12.2-14.6c-9.4,0-14.6,8.8-14.6,19.5v39.3h-4.5V1523.2z"/>
			<path class="st1" d="M1408.2,1585.9c-16.2,0-20.2-14.4-20.2-32.1c0-17.6,4-32,20.9-32c16.2,0,20.2,14.4,20.2,32
				C1429,1571.5,1425,1585.9,1408.2,1585.9z M1408.5,1525.8c-11.7,0-15.6,10.4-15.6,28.1c0,17.6,3.9,28,15.6,28s15.6-10.4,15.6-28
				C1424.1,1536.2,1420.2,1525.8,1408.5,1525.8z"/>
			<path class="st1" d="M1442.7,1527.2h-8.3v-4h8.3V1513c0-7,2.6-12.2,10.8-12.2c1.4,0,3,0,4.6,0.4v4c-1.1-0.2-2.2-0.4-3.9-0.4
				c-3.9,0-7,1.8-7,8v10.4h10.2v4h-10.2v57.3h-4.5V1527.2z"/>
			<path class="st1" d="M1537.9,1567.6h-0.2c-2.7,11.4-10.2,18.3-22,18.3c-18.3,0-25.7-16.1-25.7-43.1c0-26.3,7.4-43.4,26.8-43.4
				c19.6,0,23.4,17.2,23.4,25.4h-4.9c0-11.3-6-21.4-18.3-21.4c-16.6,0-22.1,15.6-22.1,39.1c0,22.5,4.6,39.4,21.4,39.4
				c15.8,0,20.6-15.4,20.6-30.1v-5.2h-23v-4h27.9v41.8h-4V1567.6z"/>
			<path class="st1" d="M1570.9,1585.9c-16.2,0-20.2-14.4-20.2-32.1c0-17.6,4-32,20.9-32c16.2,0,20.2,14.4,20.2,32
				C1591.8,1571.5,1587.8,1585.9,1570.9,1585.9z M1571.3,1525.8c-11.7,0-15.6,10.4-15.6,28.1c0,17.6,3.9,28,15.6,28
				s15.6-10.4,15.6-28C1586.9,1536.2,1583,1525.8,1571.3,1525.8z"/>
			<path class="st1" d="M1635.5,1572.7h-0.2c-1.5,8.3-6.9,13.2-15.5,13.2c-14.3,0-19.1-13.2-19.1-32.2c0-18.8,4.2-31.9,19.3-31.9
				c8.4,0,13,5.6,15.2,12.2h0.2v-33.2h4.5v83.7h-4.5V1572.7z M1620.5,1581.9c10.9,0,15-10.3,15-28.2c0.1-20.2-6-27.9-15.2-27.9
				c-10.5,0-14.6,9.3-14.6,27.9C1605.6,1569.3,1608.4,1581.9,1620.5,1581.9z"/>
			<path class="st1" d="M1659.9,1512.6c0,9.1-2,12.5-6.8,15.2v-4c2.9-2.1,3.3-5.9,3.3-11h-1.4v-12h4.9V1512.6z"/>
			<path class="st1" d="M1697.8,1540.5v-1.8c0-5.5-1.4-12.9-11.5-12.9c-6.4,0-11.8,3.3-11.8,11.4c0,6.4,3,9.7,9.1,12.1l9.4,3.5
				c7.4,2.8,11.1,8,11.1,16.3c0,10.3-8,16.9-17.7,16.9c-17,0-18.2-12.2-18.2-19.3v-1.6h4.5v2c0,8.7,3.5,15,13.7,15
				c9,0,12.8-6,12.8-12.8c0-5.9-2.3-9.8-9.1-12.5l-9-3.6c-7.6-3-11.5-7.5-11.5-15.4c0-10.2,7-15.8,16.8-15.8
				c13.6,0,15.9,9.3,15.9,16.8v1.9H1697.8z"/>
			<path class="st1" d="M1002,1628.1h4.5v9.1h0.2c1.8-6.3,7.1-10.5,14.8-10.5c9.5,0,12.4,5.9,13.2,11.5h0.2
				c0.8-4.5,5.4-11.5,15-11.5c9.7,0,14.6,5.9,14.6,15.6v47.1h-4.5v-46.1c0-8.2-4.2-12.7-10.5-12.7c-9.1,0-14.1,7.5-14.1,18v40.7
				h-4.5v-43.9c0-9.1-3-14.8-10.8-14.8c-9.6,0-13.8,8.4-13.8,18v40.7h-4.5V1628.1z"/>
			<path class="st1" d="M1110.2,1682c0,2.9,1.2,4.1,2.7,4.1c1.1,0,2-0.1,2.8-0.6v3.5c-0.9,0.7-2.7,1.1-4.7,1.1
				c-1.9,0-5.3-1.9-5.3-6.7v-3.9h-0.2c-1.8,6.3-7.9,11.3-16.1,11.3c-10.7,0-15.4-7.6-15.4-17.1c0-9.3,3.8-14.5,12.4-16.9l13.2-3.6
				c5.3-1.4,6-3.9,6-9c0-11.1-5.2-13.5-11.8-13.5c-10.3,0-13.4,6.4-13.4,14.9h-4.5c0-8.3,3-18.9,17.3-18.9
				c13.5,0,16.8,7.4,16.8,16.2V1682z M1105.7,1653.7h-0.2c-1.5,2.5-3.2,2.8-7.7,4.1l-9,2.5c-7.1,2-9.7,6.2-9.7,13.5
				c0,8,3.5,13.1,11.3,13.1c10.4,0,15.5-8.2,15.5-20.5V1653.7z"/>
			<path class="st1" d="M1149.1,1645.3v-1.8c0-5.5-1.4-12.9-11.5-12.9c-6.4,0-11.8,3.3-11.8,11.4c0,6.4,3,9.7,9.1,12.1l9.4,3.5
				c7.4,2.8,11.1,8,11.1,16.3c0,10.3-8,16.9-17.7,16.9c-17,0-18.2-12.2-18.2-19.3v-1.6h4.5v2c0,8.7,3.5,15,13.7,15
				c9,0,12.8-6,12.8-12.8c0-5.9-2.3-9.8-9.1-12.5l-9-3.6c-7.6-3-11.5-7.5-11.5-15.4c0-10.2,7-15.8,16.8-15.8
				c13.6,0,15.9,9.3,15.9,16.8v1.9H1149.1z"/>
			<path class="st1" d="M1159,1628.1h8.3V1610h4.5v18.2h10.2v4h-10.2v47.2c0,5.9,2.8,6.8,5.4,6.8c1.9,0,3.5-0.1,5.5-0.7v4
				c-2.2,0.5-4.6,0.7-6.3,0.7c-6.3,0-9-3.6-9-10.3v-47.7h-8.3V1628.1z"/>
			<path class="st1" d="M1191.4,1658.5c0,9.8,0.1,28.4,14.4,28.4c12.9,0,15-12.9,15-17.5h4.5c0,9.4-5.2,21.4-19,21.4
				c-15.8,0-19.8-12.9-19.8-33.8c0-18.8,6.7-30.4,20.5-30.4c14.4,0,19.1,12,19.1,31.8H1191.4z M1221.2,1654.5
				c0-11.1-1.8-23.8-14.4-23.8c-13.6,0-15.4,15.8-15.4,23.8H1221.2z"/>
			<path class="st1" d="M1235.7,1628.1h4.5v10.7h0.2c2.2-7,7.3-12.1,15.4-12.1h2.6v4h-2.6c-10.4,0-15.6,9.7-15.6,19.8v38.9h-4.5
				V1628.1z"/>
			<path class="st1" d="M1264.2,1628.1h4.5v10.8h0.2c2.2-6.6,6.2-12.2,15.7-12.2c14.5,0,18.9,13.9,18.9,31.9
				c0,19-4.8,32.2-19.1,32.2c-8.6,0-13.9-4.9-15.5-13.2h-0.2v32.5h-4.5V1628.1z M1283.6,1686.8c12.1,0,14.9-12.7,14.9-28.2
				c0-19.7-5.7-27.9-14.1-27.9c-11.3,0-15.8,9-15.8,27.9C1268.6,1676.5,1272.7,1686.8,1283.6,1686.8z"/>
			<path class="st1" d="M1314.3,1605.7h4.5v12h-4.5V1605.7z M1314.3,1628.1h4.5v61.3h-4.5V1628.1z"/>
			<path class="st1" d="M1334.6,1658.5c0,9.8,0.1,28.4,14.4,28.4c12.9,0,15-12.9,15-17.5h4.5c0,9.4-5.2,21.4-19,21.4
				c-15.8,0-19.8-12.9-19.8-33.8c0-18.8,6.7-30.4,20.5-30.4c14.4,0,19.1,12,19.1,31.8H1334.6z M1364.3,1654.5
				c0-11.1-1.8-23.8-14.4-23.8c-13.6,0-15.4,15.8-15.4,23.8H1364.3z"/>
			<path class="st1" d="M1416.1,1669.4c0,5.7-3.2,21.4-19,21.4s-19.8-13.9-19.8-32.3c0-20.3,6.2-31.8,20.6-31.8
				c14.9,0,17.8,14.5,17.8,19h-4.9c0-3.8-2.5-15-13-15c-11.4,0-15.6,10.4-15.6,28c0,19.1,4.2,28.1,15.6,28.1
				c11.3,0,13.4-12.9,13.4-17.5H1416.1z"/>
			<path class="st1" d="M1427.9,1658.5c0,9.8,0.1,28.4,14.4,28.4c12.9,0,15-12.9,15-17.5h4.5c0,9.4-5.2,21.4-19,21.4
				c-15.8,0-19.8-12.9-19.8-33.8c0-18.8,6.7-30.4,20.5-30.4c14.4,0,19.1,12,19.1,31.8H1427.9z M1457.6,1654.5
				c0-11.1-1.8-23.8-14.4-23.8c-13.6,0-15.4,15.8-15.4,23.8H1457.6z"/>
			<path class="st1" d="M1471.3,1677.5h4.9v11.7c0,9.1-2,12.5-6.8,15.2v-4c2.9-2.1,3.3-5.9,3.3-11h-1.4V1677.5z"/>
			<path class="st1" d="M1512.6,1628.1h8.3V1610h4.5v18.2h10.2v4h-10.2v47.2c0,5.9,2.8,6.8,5.4,6.8c1.9,0,3.5-0.1,5.5-0.7v4
				c-2.2,0.5-4.6,0.7-6.3,0.7c-6.3,0-9-3.6-9-10.3v-47.7h-8.3V1628.1z"/>
			<path class="st1" d="M1544.9,1658.5c0,9.8,0.1,28.4,14.4,28.4c12.9,0,15-12.9,15-17.5h4.5c0,9.4-5.2,21.4-19,21.4
				c-15.8,0-19.8-12.9-19.8-33.8c0-18.8,6.7-30.4,20.5-30.4c14.4,0,19.1,12,19.1,31.8H1544.9z M1574.7,1654.5
				c0-11.1-1.8-23.8-14.4-23.8c-13.6,0-15.4,15.8-15.4,23.8H1574.7z"/>
			<path class="st1" d="M1589.7,1605.7h4.5v83.7h-4.5V1605.7z"/>
			<path class="st1" d="M1607,1605.7h4.5v83.7h-4.5V1605.7z"/>
			<path class="st1" d="M1624.4,1605.7h4.5v12h-4.5V1605.7z M1624.4,1628.1h4.5v61.3h-4.5V1628.1z"/>
			<path class="st1" d="M1641.2,1628.1h4.5v9.3h0.2c2.1-5.4,7.3-10.7,15.6-10.7c8.7,0,15.5,4.9,15.5,16.5v46.2h-4.5v-44.1
				c0-10.9-4.6-14.6-12.2-14.6c-9.4,0-14.6,8.8-14.6,19.5v39.3h-4.5V1628.1z"/>
			<path class="st1" d="M1726.7,1686c0,15.1-4.5,25-19.7,25c-15.6,0-16.6-12.1-16.6-15.2h4.5c0,6.3,4,11.3,12.7,11.3
				c10.4,0,14.8-6,14.8-18.8V1677h-0.4c-1.8,5.4-5.3,12.4-16.1,12.4c-14.4,0-18.4-14.2-18.4-30.9s3.2-31.8,19.3-31.8
				c8,0,12.9,4.5,15.2,11.6h0.2v-10.2h4.5V1686z M1707.2,1685.4c11.1,0,15-11.3,15-27.9c0-17.8-4.8-26.8-14.4-26.8
				c-9.8,0-15.5,6.9-15.5,27.8C1692.3,1674.2,1695.6,1685.4,1707.2,1685.4z"/>
			<path class="st1" d="M1020,1795.7c-16.2,0-20.2-14.4-20.2-32.1c0-17.6,4-32,20.9-32c16.2,0,20.2,14.4,20.2,32
				C1040.8,1781.3,1036.8,1795.7,1020,1795.7z M1020.3,1735.6c-11.7,0-15.6,10.4-15.6,28.1c0,17.6,3.9,28,15.6,28s15.6-10.4,15.6-28
				C1035.9,1746,1032,1735.6,1020.3,1735.6z"/>
			<path class="st1" d="M1046.2,1733h8.3v-18.2h4.5v18.2h10.2v4H1059v47.2c0,5.9,2.8,6.8,5.4,6.8c1.9,0,3.5-0.1,5.5-0.7v4
				c-2.2,0.5-4.6,0.7-6.3,0.7c-6.3,0-9-3.6-9-10.3V1737h-8.3V1733z"/>
			<path class="st1" d="M1075.1,1710.6h4.5v31.6h0.2c2.1-5.4,7.3-10.7,15.6-10.7c8.7,0,15.5,4.9,15.5,16.5v46.2h-4.5v-44.1
				c0-10.9-4.6-14.6-12.2-14.6c-9.4,0-14.6,8.8-14.6,19.5v39.3h-4.5V1710.6z"/>
			<path class="st1" d="M1126.2,1763.4c0,9.8,0.1,28.4,14.4,28.4c12.9,0,15-12.9,15-17.5h4.5c0,9.4-5.2,21.4-19,21.4
				c-15.8,0-19.8-12.9-19.8-33.8c0-18.8,6.7-30.4,20.5-30.4c14.4,0,19.1,12,19.1,31.8H1126.2z M1156,1759.4
				c0-11.1-1.8-23.8-14.4-23.8c-13.6,0-15.4,15.8-15.4,23.8H1156z"/>
			<path class="st1" d="M1170.5,1733h4.5v10.7h0.2c2.2-7,7.3-12.1,15.4-12.1h2.6v4h-2.6c-10.4,0-15.6,9.7-15.6,19.8v38.9h-4.5V1733z
				"/>
			<path class="st1" d="M1225,1750.2v-1.8c0-5.5-1.4-12.9-11.5-12.9c-6.4,0-11.8,3.3-11.8,11.4c0,6.4,3,9.7,9.1,12.1l9.4,3.5
				c7.4,2.8,11.1,8,11.1,16.3c0,10.3-8,16.9-17.7,16.9c-17,0-18.2-12.2-18.2-19.3v-1.6h4.5v2c0,8.7,3.5,15,13.7,15
				c9,0,12.8-6,12.8-12.8c0-5.9-2.3-9.8-9.1-12.5l-9-3.6c-7.6-3-11.5-7.5-11.5-15.4c0-10.2,7-15.8,16.8-15.8
				c13.6,0,15.9,9.3,15.9,16.8v1.9H1225z"/>
			<path class="st1" d="M1301.1,1786.9c0,2.9,1.2,4.1,2.7,4.1c1.1,0,2-0.1,2.8-0.6v3.5c-0.9,0.7-2.7,1.1-4.7,1.1
				c-1.9,0-5.3-1.9-5.3-6.7v-3.9h-0.2c-1.8,6.3-7.9,11.3-16.1,11.3c-10.7,0-15.4-7.6-15.4-17.1c0-9.3,3.8-14.5,12.4-16.9l13.2-3.6
				c5.3-1.4,6-3.9,6-9c0-11.1-5.2-13.5-11.8-13.5c-10.3,0-13.4,6.4-13.4,14.9h-4.5c0-8.3,3-18.9,17.3-18.9
				c13.5,0,16.8,7.4,16.8,16.2V1786.9z M1296.6,1758.6h-0.2c-1.5,2.5-3.2,2.8-7.7,4.1l-9,2.5c-7.1,2-9.7,6.2-9.7,13.5
				c0,8,3.5,13.1,11.3,13.1c10.4,0,15.5-8.2,15.5-20.5V1758.6z"/>
			<path class="st1" d="M1314,1710.6h4.5v33.2h0.2c2.2-6.6,6.2-12.2,15.7-12.2c15.4,0,18.9,13.9,18.9,31.9c0,19-4.8,32.2-19.1,32.2
				c-8.6,0-13.9-4.9-15.5-13.2h-0.2v11.8h-4.5V1710.6z M1318.4,1763.5c0,17.9,4.1,28.2,15,28.2c12.1,0,14.9-12.7,14.9-28.2
				c0-19.1-3.8-27.9-14.1-27.9C1323,1735.6,1318.4,1744.6,1318.4,1763.5z"/>
			<path class="st1" d="M1382.3,1795.7c-16.2,0-20.2-14.4-20.2-32.1c0-17.6,4-32,20.9-32c16.2,0,20.2,14.4,20.2,32
				C1403.1,1781.3,1399.1,1795.7,1382.3,1795.7z M1382.6,1735.6c-11.7,0-15.6,10.4-15.6,28.1c0,17.6,3.9,28,15.6,28
				s15.6-10.4,15.6-28C1398.2,1746,1394.3,1735.6,1382.6,1735.6z"/>
			<path class="st1" d="M1449.3,1794.3h-4.5v-9.3h-0.2c-2.1,5.4-7.3,10.7-15.6,10.7c-8.7,0-15.5-4.9-15.5-16.5V1733h4.5v44.1
				c0,10.9,4.6,14.6,12.2,14.6c9.4,0,14.6-8.8,14.6-19.5V1733h4.5V1794.3z"/>
			<path class="st1" d="M1456.2,1733h8.3v-18.2h4.5v18.2h10.2v4H1469v47.2c0,5.9,2.8,6.8,5.4,6.8c1.9,0,3.5-0.1,5.5-0.7v4
				c-2.2,0.5-4.6,0.7-6.3,0.7c-6.3,0-9-3.6-9-10.3V1737h-8.3V1733z"/>
			<path class="st1" d="M1508.2,1733h8.3v-18.2h4.5v18.2h10.2v4H1521v47.2c0,5.9,2.8,6.8,5.4,6.8c1.9,0,3.5-0.1,5.5-0.7v4
				c-2.2,0.5-4.6,0.7-6.3,0.7c-6.3,0-9-3.6-9-10.3V1737h-8.3V1733z"/>
			<path class="st1" d="M1537.2,1710.6h4.5v31.6h0.2c2.1-5.4,7.3-10.7,15.6-10.7c8.7,0,15.5,4.9,15.5,16.5v46.2h-4.5v-44.1
				c0-10.9-4.6-14.6-12.2-14.6c-9.4,0-14.6,8.8-14.6,19.5v39.3h-4.5V1710.6z"/>
			<path class="st1" d="M1588.3,1763.4c0,9.8,0.1,28.4,14.4,28.4c12.9,0,15-12.9,15-17.5h4.5c0,9.4-5.2,21.4-19,21.4
				c-15.8,0-19.8-12.9-19.8-33.8c0-18.8,6.7-30.4,20.5-30.4c14.4,0,19.1,12,19.1,31.8H1588.3z M1618,1759.4
				c0-11.1-1.8-23.8-14.4-23.8c-13.6,0-15.4,15.8-15.4,23.8H1618z"/>
			<path class="st1" d="M1039.1,1895.8c0,15.1-4.5,25-19.7,25c-15.6,0-16.6-12.1-16.6-15.2h4.5c0,6.3,4,11.3,12.7,11.3
				c10.4,0,14.8-6,14.8-18.8v-11.3h-0.4c-1.8,5.4-5.3,12.4-16.1,12.4c-14.4,0-18.4-14.2-18.4-30.9s3.2-31.8,19.3-31.8
				c8,0,12.9,4.5,15.2,11.6h0.2v-10.2h4.5V1895.8z M1019.6,1895.2c11.1,0,15-11.3,15-27.9c0-17.8-4.8-26.8-14.4-26.8
				c-9.8,0-15.5,6.9-15.5,27.8C1004.7,1884,1008,1895.2,1019.6,1895.2z"/>
			<path class="st1" d="M1051.2,1837.9h4.5v10.7h0.2c2.2-7,7.3-12.1,15.4-12.1h2.6v4h-2.6c-10.4,0-15.6,9.7-15.6,19.8v38.9h-4.5
				V1837.9z"/>
			<path class="st1" d="M1112.4,1891.8c0,2.9,1.2,4.1,2.7,4.1c1.1,0,2-0.1,2.8-0.6v3.5c-0.9,0.7-2.7,1.1-4.7,1.1
				c-1.9,0-5.3-1.9-5.3-6.7v-3.9h-0.2c-1.8,6.3-7.9,11.3-16.1,11.3c-10.7,0-15.4-7.6-15.4-17.1c0-9.3,3.8-14.5,12.4-16.9l13.2-3.6
				c5.3-1.4,6-3.9,6-9c0-11.1-5.2-13.5-11.8-13.5c-10.3,0-13.4,6.4-13.4,14.9h-4.5c0-8.3,3-18.9,17.3-18.9
				c13.5,0,16.8,7.4,16.8,16.2V1891.8z M1108,1863.4h-0.2c-1.5,2.5-3.2,2.8-7.7,4.1l-9,2.5c-7.1,2-9.7,6.2-9.7,13.5
				c0,8,3.5,13.1,11.3,13.1c10.4,0,15.5-8.2,15.5-20.5V1863.4z"/>
			<path class="st1" d="M1162.3,1879.1c0,5.7-3.2,21.4-19,21.4s-19.8-13.9-19.8-32.3c0-20.3,6.2-31.8,20.6-31.8
				c14.9,0,17.8,14.5,17.8,19h-4.9c0-3.8-2.5-15-13-15c-11.4,0-15.6,10.4-15.6,28c0,19.1,4.2,28.1,15.6,28.1
				c11.3,0,13.4-12.9,13.4-17.5H1162.3z"/>
			<path class="st1" d="M1174,1868.2c0,9.8,0.1,28.4,14.4,28.4c12.9,0,15-12.9,15-17.5h4.5c0,9.4-5.2,21.4-19,21.4
				c-15.8,0-19.8-12.9-19.8-33.8c0-18.8,6.7-30.4,20.5-30.4c14.4,0,19.1,12,19.1,31.8H1174z M1203.8,1864.3
				c0-11.1-1.8-23.8-14.4-23.8c-13.6,0-15.4,15.8-15.4,23.8H1203.8z"/>
			<path class="st1" d="M1265.1,1900.6c-16.2,0-20.2-14.4-20.2-32.1c0-17.6,4-32,20.9-32c16.2,0,20.2,14.4,20.2,32
				C1286,1886.2,1282,1900.6,1265.1,1900.6z M1265.4,1840.5c-11.7,0-15.6,10.4-15.6,28.1c0,17.6,3.9,28,15.6,28s15.6-10.4,15.6-28
				C1281,1850.9,1277.2,1840.5,1265.4,1840.5z"/>
			<path class="st1" d="M1299.7,1841.9h-8.3v-4h8.3v-10.2c0-7,2.6-12.2,10.8-12.2c1.4,0,3,0,4.6,0.4v4c-1.1-0.2-2.2-0.4-3.9-0.4
				c-3.9,0-7,1.8-7,8v10.4h10.2v4h-10.2v57.3h-4.5V1841.9z"/>
			<path class="st1" d="M1394.8,1882.3h-0.2c-2.7,11.4-10.2,18.3-22,18.3c-18.3,0-25.7-16.1-25.7-43.1c0-26.3,7.4-43.4,26.8-43.4
				c19.6,0,23.4,17.2,23.4,25.4h-4.9c0-11.3-6-21.4-18.3-21.4c-16.6,0-22.1,15.6-22.1,39.1c0,22.5,4.6,39.4,21.4,39.4
				c15.8,0,20.6-15.4,20.6-30.1v-5.2h-23v-4h27.9v41.8h-4V1882.3z"/>
			<path class="st1" d="M1427.9,1900.6c-16.2,0-20.2-14.4-20.2-32.1c0-17.6,4-32,20.9-32c16.2,0,20.2,14.4,20.2,32
				C1448.7,1886.2,1444.7,1900.6,1427.9,1900.6z M1428.2,1840.5c-11.7,0-15.6,10.4-15.6,28.1c0,17.6,3.9,28,15.6,28
				s15.6-10.4,15.6-28C1443.8,1850.9,1439.9,1840.5,1428.2,1840.5z"/>
			<path class="st1" d="M1492.4,1887.3h-0.2c-1.5,8.3-6.9,13.2-15.5,13.2c-14.3,0-19.1-13.2-19.1-32.2c0-18.8,4.2-31.9,19.3-31.9
				c8.4,0,13,5.6,15.2,12.2h0.2v-33.2h4.5v83.7h-4.5V1887.3z M1477.4,1896.6c10.9,0,15-10.3,15-28.2c0.1-20.2-6-27.9-15.2-27.9
				c-10.5,0-14.6,9.3-14.6,27.9C1462.5,1884,1465.4,1896.6,1477.4,1896.6z"/>
		</g>
		<g>
			<path class="st2" d="M1007.3,1956.5h7.3l11.8,43.9h-5.7l-3.1-12.1h-14l-3.3,12.1h-5.7L1007.3,1956.5z M1004.7,1983.9h11.8
				l-5.6-21.2h-0.1L1004.7,1983.9z"/>
			<path class="st2" d="M1044.9,1977.5c0-3.2-1.3-6.8-5.2-6.8c-3.2,0-6.5,1.6-6.5,13.7c0,4.3,0.1,12.9,6.3,12.9
				c4.4,0,5.4-4.7,5.4-8.2h5.2c0,5.2-2.6,12.3-10.8,12.3c-8.1,0-11.4-5.6-11.4-16.9c0-8.2,1.6-17.8,11.7-17.8
				c9,0,10.5,7.1,10.5,10.9H1044.9z"/>
			<path class="st2" d="M1057,1957.9h5.2v9.6h5.7v4.1h-5.7v21.2c0,2.6,0.7,3.7,3.4,3.7c1.1,0,1.7-0.1,2.3-0.2v4.2
				c-0.7,0.1-2,0.4-4.2,0.4c-5.4,0-6.6-2.2-6.6-6.5v-22.8h-4.8v-4.1h4.8V1957.9z"/>
			<path class="st2" d="M1085.5,1977.1c0-4.2-1.1-6.5-4.9-6.5c-1.7,0-5.4,0.4-5.4,5c0,3.9,4.1,4.6,8.1,6c4,1.4,8.1,2.8,8.1,9.3
				c0,7-4.5,10.3-10.6,10.3c-11.2,0-11.3-8.3-11.3-11.7h5.2c0,4,1.1,7.6,6.2,7.6c1.7,0,5.5-0.8,5.5-5.5c0-4.4-4.1-5.4-8.1-6.7
				s-8.1-2.5-8.1-9.3c0-6.2,4.8-9.1,10.5-9.1c9.6,0,10,6.6,10,10.5H1085.5z"/>
			<path class="st2" d="M1134.7,2000.4h-24.4c0-8.1,4.6-13.7,9.4-17.8l3.6-3c3.5-3,5.8-5.7,5.8-10.5c0-3.8-1.7-7.8-6.3-7.8
				c-6.7,0-6.9,7-6.9,9.4h-5.4c0-8.2,3.4-13.8,12.4-13.8c10.1,0,11.7,7.8,11.7,11.6c0,6.6-2.8,10.1-7.6,14.3l-6.2,5.4
				c-2.4,2-4.1,4.6-4.7,7.4h18.7V2000.4z"/>
			<path class="st2" d="M1139.7,1979.3c0-9.6,0.7-22.4,12.4-22.4s12.4,11.7,12.4,22.4c0,9.2-0.7,22-12.4,22
				S1139.7,1989.6,1139.7,1979.3z M1152.1,1997.2c6.6,0,7-8.8,7-18c0-9.6-0.4-18.3-7-18.3c-6.6,0-7,8.7-7,18.3
				C1145.1,1988.4,1145.4,1997.2,1152.1,1997.2z"/>
			<path class="st2" d="M1171.4,1969.3h5.7v6.5h-5.7V1969.3z M1171.4,1993.9h5.7v6.5h-5.7V1993.9z"/>
			<path class="st2" d="M1208.5,2000.4h-24.4c0-8.1,4.6-13.7,9.4-17.8l3.6-3c3.5-3,5.8-5.7,5.8-10.5c0-3.8-1.7-7.8-6.3-7.8
				c-6.7,0-6.9,7-6.9,9.4h-5.4c0-8.2,3.4-13.8,12.4-13.8c10.1,0,11.7,7.8,11.7,11.6c0,6.6-2.8,10.1-7.6,14.3l-6.2,5.4
				c-2.4,2-4.1,4.6-4.7,7.4h18.7V2000.4z"/>
			<path class="st2" d="M1238.1,2000.4h-24.4c0-8.1,4.6-13.7,9.4-17.8l3.6-3c3.5-3,5.8-5.7,5.8-10.5c0-3.8-1.7-7.8-6.3-7.8
				c-6.7,0-6.9,7-6.9,9.4h-5.4c0-8.2,3.4-13.8,12.4-13.8c10.1,0,11.7,7.8,11.7,11.6c0,6.6-2.8,10.1-7.6,14.3l-6.2,5.4
				c-2.4,2-4.1,4.6-4.7,7.4h18.7V2000.4z"/>
		</g>
	</g>
	<g>
		<g>
			<defs>
				<rect id="SVGID_1_" x="520.6" y="449.2" width="842.7" height="842.8"/>
			</defs>
			<clipPath id="SVGID_2_">
				<use xlink:href="#SVGID_1_"  style="overflow:visible;"/>
			</clipPath>
			<path class="st3" d="M1274.3,624.7c41.7,63,66.1,138.5,66.1,219.8c0,220-178.4,398.4-398.4,398.4c-220,0-398.4-178.4-398.4-398.4
				c0-81.2,24.3-156.8,66.1-219.8 M1189.5,685.2c29.3,45.7,46.3,100,46.3,158.3c0,162.3-131.5,293.8-293.8,293.8
				c-162.3,0-293.8-131.5-293.8-293.8c0-58.3,17-112.7,46.3-158.4 M1143.4,714.7c23.8,37.2,37.6,81.4,37.6,128.8
				c0,132-107,239.1-239.1,239.1s-239.1-107-239.1-239.1c0-47.4,13.8-91.6,37.6-128.8"/>
			<path class="st4" d="M1100.7,1150.2c-47.5,24.7-101.5,38.6-158.8,38.6c-190.7,0-345.3-154.6-345.3-345.3S751.3,498.3,942,498.3
				c57.2,0,111.2,13.9,158.8,38.6"/>
		</g>
	</g>
</g>
<g id="Details">
	<g>
		<g>
			<g>
				<g>
					<path class="st1" d="M460.7,1591c0-10.3-4.8-16.6-15.1-16.6c-10.2,0-15.9,6.7-15.9,15.1c0,25,40.7,11.3,40.7,40.8
						c0,16.2-10.1,24.6-25.4,24.6c-15.8,0-24.5-8.5-24.5-24.9v-2.5h7.5v3.2c0,10.7,5.6,17.9,16.7,17.9c10.6,0,18.1-5.3,18.1-17.1
						c0-24.9-40.7-10.7-40.7-41.2c0-13.2,8.6-22.2,23.2-22.2c15.6,0,22.8,8,22.8,22.9H460.7z"/>
					<path class="st1" d="M496.1,1575.8h-21.6v-6.4h50.8v6.4h-21.6v77.6h-7.5V1575.8z"/>
					<path class="st1" d="M531.3,1569.4h7.5v60.3c0,12.6,5.4,18.7,16.5,18.7c11.1,0,16.5-6.1,16.5-18.7v-60.3h7.5v60.4
						c0,17.6-8.6,24.9-24,24.9c-15.4,0-24-7.3-24-24.9V1569.4z"/>
					<path class="st1" d="M591.3,1569.4h20.2c24.5,0,30.5,14.6,30.5,42c0,27.4-6,42-30.5,42h-20.2V1569.4z M598.8,1647h12.2
						c16.5,0,23.4-8.2,23.4-35.5c0-27.5-6.9-35.8-23.4-35.8h-12.2V1647z"/>
					<path class="st1" d="M654.5,1569.4h41.6v6.4H662v30.6h31.9v6.4H662v34.3h35.2v6.4h-42.7V1569.4z"/>
					<path class="st1" d="M706.7,1569.4h10.1l32.1,73.1h0.2v-73.1h7.5v84h-10.1l-32.1-73.1h-0.2v73.1h-7.5V1569.4z"/>
					<path class="st1" d="M785.6,1575.8h-21.6v-6.4h50.8v6.4h-21.6v77.6h-7.5V1575.8z"/>
					<path class="st1" d="M825.9,1569.4h8v12c0,6.9-1.4,13.5-8.7,16.2v-4.7c3.1-1.9,4-5.2,4.1-11.5h-3.4V1569.4z"/>
					<path class="st1" d="M887.1,1591c0-10.3-4.8-16.6-15.1-16.6c-10.2,0-15.9,6.7-15.9,15.1c0,25,40.7,11.3,40.7,40.8
						c0,16.2-10.1,24.6-25.4,24.6c-15.8,0-24.5-8.5-24.5-24.9v-2.5h7.5v3.2c0,10.7,5.6,17.9,16.7,17.9c10.6,0,18.1-5.3,18.1-17.1
						c0-24.9-40.7-10.7-40.7-41.2c0-13.2,8.6-22.2,23.2-22.2c15.6,0,22.8,8,22.8,22.9H887.1z"/>
					<path class="st1" d="M633.4,1674.7h7.5v60.3c0,12.6,5.4,18.7,16.5,18.7c11.1,0,16.5-6.1,16.5-18.7v-60.3h7.5v60.4
						c0,17.6-8.6,24.9-24,24.9c-15.4,0-24-7.3-24-24.9V1674.7z"/>
					<path class="st1" d="M693.4,1674.7h10.1l32.1,73.1h0.2v-73.1h7.5v84h-10.1l-32.1-73.1h-0.2v73.1h-7.5V1674.7z"/>
					<path class="st1" d="M757,1674.7h7.5v84H757V1674.7z"/>
					<path class="st1" d="M804.3,1673.3c17.2,0,26.8,13.3,26.8,43.4s-9.6,43.4-26.8,43.4c-17.2,0-26.8-13.3-26.8-43.4
						S787.1,1673.3,804.3,1673.3z M804.3,1753.7c12,0,19.3-9.9,19.3-37c0-27.2-7.3-37-19.3-37s-19.3,9.9-19.3,37
						C785,1743.8,792.3,1753.7,804.3,1753.7z"/>
					<path class="st1" d="M843.5,1674.7h10.1l32.1,73.1h0.2v-73.1h7.5v84h-10.1l-32.1-73.1h-0.2v73.1h-7.5V1674.7z"/>
				</g>
			</g>
			<g>
				<path class="st1" d="M478.6,1403.5H457v-6.4h50.8v6.4h-21.6v77.6h-7.5V1403.5z"/>
				<path class="st1" d="M513.9,1397.1h7.5v60.3c0,12.6,5.4,18.7,16.5,18.7s16.5-6.1,16.5-18.7v-60.3h7.5v60.5
					c0,17.6-8.6,24.9-24,24.9c-15.4,0-24-7.3-24-24.9V1397.1z"/>
				<path class="st1" d="M573.9,1397.1h41.6v6.4h-34.1v30.6h31.9v6.4h-31.9v34.3h35.2v6.4h-42.7V1397.1z"/>
				<path class="st1" d="M662.9,1418.6c0-10.4-4.8-16.6-15.1-16.6c-10.2,0-15.9,6.7-15.9,15.1c0,25.1,40.7,11.3,40.7,40.8
					c0,16.2-10.1,24.6-25.4,24.6c-15.8,0-24.5-8.5-24.5-24.9v-2.5h7.5v3.2c0,10.7,5.6,17.9,16.7,17.9c10.6,0,18.1-5.3,18.1-17.1
					c0-24.9-40.7-10.7-40.7-41.2c0-13.2,8.6-22.2,23.2-22.2c15.6,0,22.8,8,22.8,22.9H662.9z"/>
				<path class="st1" d="M682.5,1397.1h20.2c24.5,0,30.5,14.6,30.5,42s-6,42-30.5,42h-20.2V1397.1z M690.1,1474.7h12.2
					c16.5,0,23.4-8.2,23.4-35.5c0-27.5-6.9-35.8-23.4-35.8h-12.2V1474.7z"/>
				<path class="st1" d="M763.8,1397.1h9.4l24.8,84h-8l-6.8-24.5h-29.4l-6.8,24.5h-8L763.8,1397.1z M781.6,1450.3l-12.9-47.3h-0.2
					l-12.9,47.3H781.6z"/>
				<path class="st1" d="M813.8,1447.5l-22.7-50.3h8l18.5,41.9l18.5-41.9h8l-22.7,50.3v33.6h-7.5V1447.5z"/>
				<path class="st1" d="M887.1,1418.6c0-10.4-4.8-16.6-15.1-16.6c-10.2,0-15.9,6.7-15.9,15.1c0,25.1,40.7,11.3,40.7,40.8
					c0,16.2-10.1,24.6-25.4,24.6c-15.8,0-24.5-8.5-24.5-24.9v-2.5h7.5v3.2c0,10.7,5.6,17.9,16.7,17.9c10.6,0,18.1-5.3,18.1-17.1
					c0-24.9-40.7-10.7-40.7-41.2c0-13.2,8.6-22.2,23.2-22.2c15.6,0,22.8,8,22.8,22.9H887.1z"/>
			</g>
			<g>
				<path class="st1" d="M656.7,1789.3c-4.5,7.4-6.1,16.4-6.1,25c0,9,2,17.1,6.1,25H654c-5.2-7.2-8.1-16.2-8.1-25
					c0-8.9,2.8-17.8,8.1-25H656.7z"/>
				<path class="st1" d="M660.2,1789.3h12.2c5.2,0,10.2,2.5,10.2,10.2c0,3.6-2.2,7.2-5.8,8.3v0.1c4.9,1.2,7.1,4.9,7.1,9.8
					c0,8.1-4.6,11.4-12.9,11.4h-10.8V1789.3z M665.1,1806.4h5.6c2.1,0,6.7-0.5,6.7-6.6c0-4.1-2.1-6.5-6.9-6.5h-5.5V1806.4z
					 M665.1,1825h6.7c5.2,0,7-3.5,7-7.4c0-5.5-3.5-7.6-7.8-7.6h-5.9V1825z"/>
				<path class="st1" d="M696.9,1789.3h6.6l10.7,39.8H709l-2.8-10.9h-12.7l-3,10.9h-5.1L696.9,1789.3z M694.5,1814.1h10.7l-5.1-19.2
					H700L694.5,1814.1z"/>
				<path class="st1" d="M716.7,1811h13.6v4.3h-13.6V1811z"/>
				<path class="st1" d="M735.5,1809.9c0-8.7,0.6-20.3,11.3-20.3s11.3,10.6,11.3,20.3c0,8.4-0.6,19.9-11.3,19.9
					S735.5,1819.2,735.5,1809.9z M746.7,1826.2c6,0,6.4-8,6.4-16.3c0-8.7-0.3-16.6-6.4-16.6s-6.4,7.9-6.4,16.6
					C740.4,1818.2,740.7,1826.2,746.7,1826.2z"/>
				<path class="st1" d="M765.5,1790.4h17.6v4.3h-13.9l-1.6,11.4l0.1,0.1c1.6-2,4.2-3,6.9-3c5.9,0,9.9,4.7,9.9,13
					c0,7.4-3.2,13.5-11.5,13.5c-9.4,0-10.8-7.7-10.8-10.9h4.9c0,2.1,0.8,7.2,6,7.2c5.6,0,6.5-6.2,6.5-10.3c0-4.3-1.6-8.9-6.6-8.9
					c-3.4,0-5.6,2.9-5.6,3.8l-4.2-0.2L765.5,1790.4z"/>
				<path class="st1" d="M789.8,1811h13.6v4.3h-13.6V1811z"/>
				<path class="st1" d="M808.6,1809.9c0-8.7,0.6-20.3,11.3-20.3s11.3,10.6,11.3,20.3c0,8.4-0.6,19.9-11.3,19.9
					S808.6,1819.2,808.6,1809.9z M819.8,1826.2c6,0,6.4-8,6.4-16.3c0-8.7-0.3-16.6-6.4-16.6s-6.4,7.9-6.4,16.6
					C813.5,1818.2,813.8,1826.2,819.8,1826.2z"/>
				<path class="st1" d="M835.3,1809.9c0-8.7,0.6-20.3,11.3-20.3s11.3,10.6,11.3,20.3c0,8.4-0.6,19.9-11.3,19.9
					S835.3,1819.2,835.3,1809.9z M846.6,1826.2c6,0,6.4-8,6.4-16.3c0-8.7-0.3-16.6-6.4-16.6s-6.4,7.9-6.4,16.6
					C840.2,1818.2,840.6,1826.2,846.6,1826.2z"/>
				<path class="st1" d="M865.4,1790.4H883v4.3h-13.9l-1.6,11.4l0.1,0.1c1.6-2,4.2-3,6.9-3c5.9,0,9.9,4.7,9.9,13
					c0,7.4-3.2,13.5-11.5,13.5c-9.4,0-10.8-7.7-10.8-10.9h4.9c0,2.1,0.8,7.2,6,7.2c5.6,0,6.5-6.2,6.5-10.3c0-4.3-1.6-8.9-6.6-8.9
					c-3.4,0-5.6,2.9-5.6,3.8l-4.2-0.2L865.4,1790.4z"/>
				<path class="st1" d="M886.9,1839.3c4.5-7.4,6.1-16.4,6.1-25c0-9-2-17.1-6.1-25h2.7c5.2,7.2,8.1,16.2,8.1,25
					c0,8.9-2.8,17.8-8.1,25H886.9z"/>
			</g>
		</g>
		<g>
			<path class="st1" d="M742.8,1919.6v6.4H712l-3.6,29l0.2,0.2c3.2-6.1,10-8.5,16.1-8.5c12.8,0,22,9.1,22,27.5
				c0,16.7-8.3,28.6-24.7,28.6c-12.9,0-22.1-8.1-22.1-22.7h7.5c0,9.4,5.4,16.8,15.4,16.8c10,0,16.3-8.2,16.3-23.9
				c0-11.5-5.1-20.5-16.2-20.5c-6.2,0-12,2.9-14.3,9.6h-7.1l4.8-42.7H742.8z"/>
			<path class="st1" d="M758.1,1917.5h22.7c16.2,0,23,9.5,23,23.8c0,12.9-6.5,23.8-25.6,23.8h-12.6v36.5h-7.5V1917.5z M765.6,1958.7
				h12.8c10,0,17.9-4.5,17.9-17.4c0-12.6-6.4-17.4-17.9-17.4h-12.8V1958.7z"/>
			<path class="st1" d="M815.3,1917.5h13.1l20.2,74.6h0.2l20.2-74.6h12.3v84h-7.5v-76.9h-0.2l-21.8,76.9h-7.1l-21.8-76.9h-0.2v76.9
				h-7.5V1917.5z"/>
		</g>
	</g>
	<g>
		<g>
			<path class="st1" d="M309.9,111.6h8v64.2c0,13.4,5.8,19.9,17.5,19.9s17.5-6.5,17.5-19.9v-64.2h8v64.3c0,18.8-9.1,26.5-25.5,26.5
				c-16.4,0-25.5-7.8-25.5-26.5V111.6z"/>
			<path class="st1" d="M373.8,111.6h8v82.6h37.1v6.8h-45.1V111.6z"/>
			<path class="st1" d="M466.3,134.5c0-11-5.1-17.6-16-17.6c-10.9,0-16.9,7.1-16.9,16c0,26.7,43.3,12,43.3,43.4
				c0,17.3-10.8,26.2-27,26.2c-16.8,0-26-9-26-26.5v-2.6h8v3.4c0,11.4,6,19,17.8,19c11.3,0,19.3-5.6,19.3-18.1
				c0-26.5-43.3-11.4-43.3-43.8c0-14,9.1-23.7,24.7-23.7c16.6,0,24.3,8.5,24.3,24.4H466.3z"/>
			<path class="st1" d="M503.9,118.3h-23v-6.8H535v6.8h-23v82.6h-8V118.3z"/>
			<path class="st1" d="M542.7,111.6H587v6.8h-36.3v32.5h33.9v6.8h-33.9v36.5h37.4v6.8h-45.4V111.6z"/>
			<path class="st1" d="M598.3,111.6H625c14.9,0,23.2,8.5,23.2,22.4c0,10.8-4.3,20.4-16.1,22.7v0.3c11.1,1,14.9,7.4,15.3,21.2
				l0.3,9.8c0.1,4.9,0.6,9.6,3.8,13.1h-9.4c-1.9-3.1-2.3-7.8-2.4-12.5l-0.3-7.5c-0.5-15.8-3.4-20.8-17.8-20.8h-15.1v40.8h-8V111.6z
				 M606.3,153.4h13.8c12.6,0,20-5.8,20-17.5c0-10.9-4.6-17.5-19.2-17.5h-14.6V153.4z"/>
			<path class="st1" d="M689.7,111.6h8v64.2c0,13.4,5.8,19.9,17.5,19.9s17.5-6.5,17.5-19.9v-64.2h8v64.3c0,18.8-9.1,26.5-25.5,26.5
				s-25.5-7.8-25.5-26.5V111.6z"/>
			<path class="st1" d="M753.5,111.6h10.8l34.2,77.9h0.3v-77.9h8v89.4h-10.8l-34.2-77.9h-0.3v77.9h-8V111.6z"/>
			<path class="st1" d="M821.2,111.6h8v89.4h-8V111.6z"/>
			<path class="st1" d="M837.1,111.6h8.5l19.9,80.9h0.3l19.9-80.9h8.5l-23.5,89.4h-10L837.1,111.6z"/>
			<path class="st1" d="M901.6,111.6h26.7c14.9,0,23.2,8.5,23.2,22.4c0,10.8-4.3,20.4-16.1,22.7v0.3c11.1,1,14.9,7.4,15.3,21.2
				l0.3,9.8c0.1,4.9,0.6,9.6,3.8,13.1h-9.4c-1.9-3.1-2.3-7.8-2.4-12.5l-0.3-7.5c-0.5-15.8-3.4-20.8-17.8-20.8h-15.1v40.8h-8V111.6z
				 M909.6,153.4h13.8c12.6,0,20-5.8,20-17.5c0-10.9-4.6-17.5-19.2-17.5h-14.6V153.4z"/>
			<path class="st1" d="M1003.3,134.5c0-11-5.1-17.6-16-17.6c-10.9,0-16.9,7.1-16.9,16c0,26.7,43.3,12,43.3,43.4
				c0,17.3-10.8,26.2-27,26.2c-16.8,0-26-9-26-26.5v-2.6h8v3.4c0,11.4,6,19,17.8,19c11.3,0,19.3-5.6,19.3-18.1
				c0-26.5-43.3-11.4-43.3-43.8c0-14,9.1-23.7,24.7-23.7c16.6,0,24.3,8.5,24.3,24.4H1003.3z"/>
			<path class="st1" d="M1024.7,111.6h8v89.4h-8V111.6z"/>
			<path class="st1" d="M1064,118.3h-23v-6.8h54.1v6.8h-23v82.6h-8V118.3z"/>
			<path class="st1" d="M1119.6,165.1l-24.2-53.6h8.5l19.7,44.6l19.7-44.6h8.5l-24.2,53.6v35.8h-8V165.1z"/>
			<path class="st1" d="M1188.4,111.6h24.7c17.3,0,24,9.1,24,22.4c0,8.8-4.8,17.1-13.8,19.4v0.3c11,2.1,16.6,10.6,16.6,22.3
				c0,15.6-10.1,25-27,25h-24.5V111.6z M1196.5,150.9h12.6c13.8,0,20-5.9,20-16.3c0-11.9-6.1-16.3-18.6-16.3h-14V150.9z
				 M1196.5,194.2h14.9c13.9,0,20.7-6.3,20.7-18.3s-6.8-18.3-20.7-18.3h-14.9V194.2z"/>
			<path class="st1" d="M1251,111.6h44.3v6.8H1259v32.5h33.9v6.8H1259v36.5h37.4v6.8H1251V111.6z"/>
			<path class="st1" d="M1306.6,111.6h8v82.6h37.1v6.8h-45.1V111.6z"/>
			<path class="st1" d="M1359.9,111.6h44.3v6.8h-36.3v32.5h33.9v6.8h-33.9v43.3h-8V111.6z"/>
			<path class="st1" d="M1427.9,111.6h10l26.4,89.4h-8.5l-7.3-26h-31.3l-7.3,26h-8.5L1427.9,111.6z M1446.8,168.2l-13.8-50.3h-0.3
				l-13.8,50.3H1446.8z"/>
			<path class="st1" d="M1510.4,134.5c0-11-5.1-17.6-16-17.6c-10.9,0-16.9,7.1-16.9,16c0,26.7,43.3,12,43.3,43.4
				c0,17.3-10.8,26.2-27,26.2c-16.8,0-26-9-26-26.5v-2.6h8v3.4c0,11.4,6,19,17.8,19c11.3,0,19.3-5.6,19.3-18.1
				c0-26.5-43.3-11.4-43.3-43.8c0-14,9.1-23.7,24.7-23.7c16.6,0,24.3,8.5,24.3,24.4H1510.4z"/>
			<path class="st1" d="M1548,118.3h-23v-6.8h54.1v6.8h-23v82.6h-8V118.3z"/>
		</g>
		<g>
			<path class="st1" d="M495.6,282.4c0-15.9-8.5-30.4-25.9-30.4c-23.6,0-31.3,22.1-31.3,55.4c0,31.8,6.5,55.7,30.3,55.7
				c22.9,0,28.4-26.9,28.4-36.2h7c0,13.9-7,41.8-36.5,41.8c-25.7,0-36.2-22.7-36.2-61c0-37.1,10.4-61.4,38-61.4
				c27.7,0,33.2,24.4,33.2,36H495.6z"/>
			<path class="st1" d="M518.2,248.4h7v51.9h51.9v-51.9h7v118.4h-7v-60.2h-51.9v60.2h-7V248.4z"/>
			<path class="st1" d="M604.3,248.4h34.7c16.4,0,29.4,9.5,29.4,31c0,15.6-8.3,27.7-23.7,29.4v0.3c19.4,1.2,22.9,13.1,22.9,29.4
				v12.4c0,6.8,1,11.1,4,15.9h-8c-1.8-3.5-3-9.1-3-16.1v-12.1c0-16.9-4.6-26.7-23.7-26.7h-25.5v54.9h-7V248.4z M633.4,306.3
				c13.1,0,27.9-4.3,27.9-26.9c0-15.9-9-25.4-23.4-25.4h-26.7v52.2H633.4z"/>
			<path class="st1" d="M687.2,248.4h7v118.4h-7V248.4z"/>
			<path class="st1" d="M717,336.5c0,15.1,9.8,26.7,26.9,26.7c16.4,0,27.4-11.8,27.4-26.9c0-15.4-8.3-20.7-21.6-25.4l-13.4-4.6
				c-15.6-5.3-24-12.9-24-29c0-19.1,13.1-30.8,31.7-30.8c21.9,0,31.7,12.4,31.7,32.2h-7c0-15.9-7.3-26.5-24-26.5
				c-13.3,0-25.4,6.1-25.4,24.5c0,13.1,7.1,19.4,17.4,22.9l17.6,6.1c15.3,5.3,24,12.8,24,30.2c0,21.1-15.6,33-34.3,33
				c-27.4,0-33.8-19.2-33.8-30.7v-7.8h7V336.5z"/>
			<path class="st1" d="M815.9,254.7h-31.5v-6.3h70v6.3h-31.5v112.1h-7V254.7z"/>
			<path class="st1" d="M864.8,248.4h7v118.4h-7V248.4z"/>
			<path class="st1" d="M944.1,330h-44.6l-11.3,36.8h-7L918,248.4h8.8l35.5,118.4h-7L944.1,330z M922.4,255.4H922l-20.9,69h41.6
				L922.4,255.4z"/>
			<path class="st1" d="M979.9,248.4l51.6,107.5h0.3V248.4h7v118.4h-9.1l-51.7-107.5h-0.3v107.5h-7V248.4H979.9z"/>
			<path class="st1" d="M1103.1,335.5c0,16.6,7.5,27.7,25.9,27.7c17.1,0,25.9-11.1,25.9-27.7v-87.1h7v85.7
				c0,26.7-16.4,34.7-32.8,34.7c-16.4,0-32.8-6.3-32.8-34.7v-85.7h7V335.5z"/>
			<path class="st1" d="M1188.7,248.4l51.6,107.5h0.3V248.4h7v118.4h-9.1l-51.7-107.5h-0.3v107.5h-7V248.4H1188.7z"/>
			<path class="st1" d="M1266.7,248.4h7v118.4h-7V248.4z"/>
			<path class="st1" d="M1366.5,307.6c0,51.9-21.4,61.2-38.1,61.2c-22.7,0-38.3-15.3-38.3-61.2c0-45.9,16.6-61.2,38.3-61.2
				C1351.9,246.4,1366.5,261.7,1366.5,307.6z M1297,307.6c0,32.5,6.6,55.6,31.3,55.6c21.7,0,31.2-17.9,31.2-55.6
				c0-32-7.1-55.6-31.2-55.6C1305.1,252.1,1297,275.1,1297,307.6z"/>
			<path class="st1" d="M1391.1,248.4l51.6,107.5h0.3V248.4h7v118.4h-9.1l-51.7-107.5h-0.3v107.5h-7V248.4H1391.1z"/>
		</g>
	</g>
</g>
</svg>
